REM DIRINDEX 1\2,1\4,1\5,1\6,1\7,1\3\8,1\3\9,1\3\10
REM DIRNAME folder01,folder02,folder03,folder04,folder05,folder06,folder07,folder08,folder09,folder10
TITLE ""
FILE "DB4500_5th_5C_07.mp3" MP3
  TRACK 01 AUDIO
    TITLE "8:cjc113_3633"
    INDEX 01 00:00:00
  TRACK 02 AUDIO
    TITLE "0:"
    INDEX 01 00:01:17
  TRACK 03 AUDIO
    TITLE "9:cjc113_3634"
    INDEX 01 00:01:34
  TRACK 04 AUDIO
    TITLE "0:"
    INDEX 01 00:02:67
  TRACK 05 AUDIO
    TITLE "10:cjc113_3635"
    INDEX 01 00:03:10
  TRACK 06 AUDIO
    TITLE "0:"
    INDEX 01 00:06:18
  TRACK 07 AUDIO
    TITLE "8:cjc113_3636"
    INDEX 01 00:06:61
  TRACK 08 AUDIO
    TITLE "0:"
    INDEX 01 00:08:17
  TRACK 09 AUDIO
    TITLE "9:cjc113_3637"
    INDEX 01 00:08:36
  TRACK 10 AUDIO
    TITLE "0:"
    INDEX 01 00:10:02
  TRACK 11 AUDIO
    TITLE "10:cjc113_3638"
    INDEX 01 00:10:21
  TRACK 12 AUDIO
    TITLE "0:"
    INDEX 01 00:13:18
  TRACK 13 AUDIO
    TITLE "8:cjc113_3639"
    INDEX 01 00:13:59
  TRACK 14 AUDIO
    TITLE "0:"
    INDEX 01 00:14:70
  TRACK 15 AUDIO
    TITLE "9:cjc113_3640"
    INDEX 01 00:15:11
  TRACK 16 AUDIO
    TITLE "0:"
    INDEX 01 00:16:53
  TRACK 17 AUDIO
    TITLE "10:cjc113_3641"
    INDEX 01 00:16:67
  TRACK 18 AUDIO
    TITLE "0:"
    INDEX 01 00:19:60
  TRACK 19 AUDIO
    TITLE "8:cjc113_3642"
    INDEX 01 00:20:22
  TRACK 20 AUDIO
    TITLE "0:"
    INDEX 01 00:21:33
  TRACK 21 AUDIO
    TITLE "9:cjc113_3643"
    INDEX 01 00:21:51
  TRACK 22 AUDIO
    TITLE "0:"
    INDEX 01 00:23:22
  TRACK 23 AUDIO
    TITLE "10:cjc113_3644"
    INDEX 01 00:23:40
  TRACK 24 AUDIO
    TITLE "0:"
    INDEX 01 00:27:02
  TRACK 25 AUDIO
    TITLE "8:cjc113_3645"
    INDEX 01 00:27:41
  TRACK 26 AUDIO
    TITLE "0:"
    INDEX 01 00:28:53
  TRACK 27 AUDIO
    TITLE "9:cjc113_3646"
    INDEX 01 00:28:72
  TRACK 28 AUDIO
    TITLE "0:"
    INDEX 01 00:30:67
  TRACK 29 AUDIO
    TITLE "10:cjc113_3647"
    INDEX 01 00:31:10
  TRACK 30 AUDIO
    TITLE "0:"
    INDEX 01 00:34:26
  TRACK 31 AUDIO
    TITLE "8:cjc113_3648"
    INDEX 01 00:34:71
  TRACK 32 AUDIO
    TITLE "0:"
    INDEX 01 00:36:01
  TRACK 33 AUDIO
    TITLE "9:cjc113_3649"
    INDEX 01 00:36:17
  TRACK 34 AUDIO
    TITLE "0:"
    INDEX 01 00:37:38
  TRACK 35 AUDIO
    TITLE "10:cjc113_3650"
    INDEX 01 00:37:54
  TRACK 36 AUDIO
    TITLE "0:"
    INDEX 01 00:41:02
  TRACK 37 AUDIO
    TITLE "8:cjc113_3651"
    INDEX 01 00:41:42
  TRACK 38 AUDIO
    TITLE "0:"
    INDEX 01 00:42:59
  TRACK 39 AUDIO
    TITLE "9:cjc113_3652"
    INDEX 01 00:43:03
  TRACK 40 AUDIO
    TITLE "0:"
    INDEX 01 00:44:20
  TRACK 41 AUDIO
    TITLE "10:cjc113_3653"
    INDEX 01 00:44:36
  TRACK 42 AUDIO
    TITLE "0:"
    INDEX 01 00:46:39
  TRACK 43 AUDIO
    TITLE "8:cjc113_3654"
    INDEX 01 00:47:09
  TRACK 44 AUDIO
    TITLE "0:"
    INDEX 01 00:48:34
  TRACK 45 AUDIO
    TITLE "9:cjc113_3655"
    INDEX 01 00:48:49
  TRACK 46 AUDIO
    TITLE "0:"
    INDEX 01 00:49:65
  TRACK 47 AUDIO
    TITLE "10:cjc113_3656"
    INDEX 01 00:50:07
  TRACK 48 AUDIO
    TITLE "0:"
    INDEX 01 00:53:00
  TRACK 49 AUDIO
    TITLE "8:cjc113_3657"
    INDEX 01 00:53:43
  TRACK 50 AUDIO
    TITLE "0:"
    INDEX 01 00:54:66
  TRACK 51 AUDIO
    TITLE "9:cjc113_3658"
    INDEX 01 00:55:08
  TRACK 52 AUDIO
    TITLE "0:"
    INDEX 01 00:56:18
  TRACK 53 AUDIO
    TITLE "10:cjc113_3659"
    INDEX 01 00:56:39
  TRACK 54 AUDIO
    TITLE "0:"
    INDEX 01 00:59:73
  TRACK 55 AUDIO
    TITLE "8:cjc113_3660"
    INDEX 01 01:00:39
  TRACK 56 AUDIO
    TITLE "0:"
    INDEX 01 01:01:44
  TRACK 57 AUDIO
    TITLE "9:cjc113_3661"
    INDEX 01 01:01:60
  TRACK 58 AUDIO
    TITLE "0:"
    INDEX 01 01:02:69
  TRACK 59 AUDIO
    TITLE "10:cjc113_3662"
    INDEX 01 01:03:10
  TRACK 60 AUDIO
    TITLE "0:"
    INDEX 01 01:06:22
  TRACK 61 AUDIO
    TITLE "8:cjc113_3663"
    INDEX 01 01:06:63
  TRACK 62 AUDIO
    TITLE "0:"
    INDEX 01 01:08:15
  TRACK 63 AUDIO
    TITLE "9:cjc113_3664"
    INDEX 01 01:08:31
  TRACK 64 AUDIO
    TITLE "0:"
    INDEX 01 01:09:71
  TRACK 65 AUDIO
    TITLE "10:cjc113_3665"
    INDEX 01 01:10:14
  TRACK 66 AUDIO
    TITLE "0:"
    INDEX 01 01:13:73
  TRACK 67 AUDIO
    TITLE "8:cjc113_3666"
    INDEX 01 01:14:39
  TRACK 68 AUDIO
    TITLE "0:"
    INDEX 01 01:15:58
  TRACK 69 AUDIO
    TITLE "9:cjc113_3667"
    INDEX 01 01:16:01
  TRACK 70 AUDIO
    TITLE "0:"
    INDEX 01 01:17:49
  TRACK 71 AUDIO
    TITLE "10:cjc113_3668"
    INDEX 01 01:17:67
  TRACK 72 AUDIO
    TITLE "0:"
    INDEX 01 01:22:15
  TRACK 73 AUDIO
    TITLE "8:cjc113_3669"
    INDEX 01 01:22:54
  TRACK 74 AUDIO
    TITLE "0:"
    INDEX 01 01:24:00
  TRACK 75 AUDIO
    TITLE "9:cjc113_3670"
    INDEX 01 01:24:14
  TRACK 76 AUDIO
    TITLE "0:"
    INDEX 01 01:25:68
  TRACK 77 AUDIO
    TITLE "10:cjc113_3671"
    INDEX 01 01:26:11
  TRACK 78 AUDIO
    TITLE "0:"
    INDEX 01 01:29:64
